<?xml version="1.0" encoding="UTF-8"?>
<svg width="700pt" height="700pt" version="1.1" viewBox="0 0 700 700" xmlns="http://www.w3.org/2000/svg">
 <path d="m579.75 97.844-48.066-48.066c-12.508-12.125-29.242-18.906-46.664-18.906-17.422 0-34.16 6.7812-46.668 18.906l-312.82 313.6c-8.3008 8.3359-13.324 19.375-14.156 31.109l-10.27 116.51c-0.375 4.8516 1.3867 9.625 4.8281 13.062 3.4375 3.4414 8.2109 5.2031 13.062 4.8281l116.82-10.266v-0.003906c11.77-0.81641 22.836-5.9062 31.113-14.309l312.82-313.45c12.254-12.379 19.129-29.094 19.129-46.512s-6.875-34.133-19.129-46.512zm-336.46 383.29c-2.6953 2.8438-6.3594 4.5664-10.266 4.8242l-97.535 8.3984 8.5547-97.688c0.33594-3.8125 1.9883-7.3867 4.668-10.113l251.07-251.38 94.578 94.578zm313.13-313.6-38.891 39.043-94.422-94.578 38.891-39.043c6.2461-6.082 14.617-9.4844 23.332-9.4844 8.7188 0 17.09 3.4023 23.336 9.4844l48.066 48.066c6.1406 6.1992 9.5625 14.59 9.5039 23.32-0.058593 8.7266-3.5898 17.07-9.8164 23.191z"/>
</svg>
